%TF.GenerationSoftware,KiCad,Pcbnew,8.0.1*%
%TF.CreationDate,2024-11-10T18:34:56+01:00*%
%TF.ProjectId,Weather,57656174-6865-4722-9e6b-696361645f70,1.0*%
%TF.SameCoordinates,Original*%
%TF.FileFunction,Drillmap*%
%TF.FilePolarity,Positive*%
%FSLAX45Y45*%
G04 Gerber Fmt 4.5, Leading zero omitted, Abs format (unit mm)*
G04 Created by KiCad (PCBNEW 8.0.1) date 2024-11-10 18:34:56*
%MOMM*%
%LPD*%
G01*
G04 APERTURE LIST*
%ADD10C,0.200000*%
%ADD11C,0.110000*%
%ADD12C,0.320000*%
G04 APERTURE END LIST*
D10*
X4318000Y-6146800D02*
X14630400Y-6146800D01*
X14630400Y-14097000D01*
X4318000Y-14097000D01*
X4318000Y-6146800D01*
D11*
X4666000Y-11293100D02*
X4776000Y-11403100D01*
X4776000Y-11293100D02*
X4666000Y-11403100D01*
X4666000Y-11547100D02*
X4776000Y-11657100D01*
X4776000Y-11547100D02*
X4666000Y-11657100D01*
X4666000Y-11953500D02*
X4776000Y-12063500D01*
X4776000Y-11953500D02*
X4666000Y-12063500D01*
X4666000Y-12207500D02*
X4776000Y-12317500D01*
X4776000Y-12207500D02*
X4666000Y-12317500D01*
D12*
X4732000Y-6477000D02*
G75*
G02*
X4412000Y-6477000I-160000J0D01*
G01*
X4412000Y-6477000D02*
G75*
G02*
X4732000Y-6477000I160000J0D01*
G01*
X4732000Y-13665200D02*
G75*
G02*
X4412000Y-13665200I-160000J0D01*
G01*
X4412000Y-13665200D02*
G75*
G02*
X4732000Y-13665200I160000J0D01*
G01*
X11950680Y-6477000D02*
G75*
G02*
X11630680Y-6477000I-160000J0D01*
G01*
X11630680Y-6477000D02*
G75*
G02*
X11950680Y-6477000I160000J0D01*
G01*
X11950680Y-13665200D02*
G75*
G02*
X11630680Y-13665200I-160000J0D01*
G01*
X11630680Y-13665200D02*
G75*
G02*
X11950680Y-13665200I160000J0D01*
G01*
D10*
X4568777Y-14418484D02*
X4568777Y-14218484D01*
X4568777Y-14218484D02*
X4616396Y-14218484D01*
X4616396Y-14218484D02*
X4644967Y-14228008D01*
X4644967Y-14228008D02*
X4664015Y-14247055D01*
X4664015Y-14247055D02*
X4673539Y-14266103D01*
X4673539Y-14266103D02*
X4683063Y-14304198D01*
X4683063Y-14304198D02*
X4683063Y-14332769D01*
X4683063Y-14332769D02*
X4673539Y-14370865D01*
X4673539Y-14370865D02*
X4664015Y-14389912D01*
X4664015Y-14389912D02*
X4644967Y-14408960D01*
X4644967Y-14408960D02*
X4616396Y-14418484D01*
X4616396Y-14418484D02*
X4568777Y-14418484D01*
X4768777Y-14418484D02*
X4768777Y-14285150D01*
X4768777Y-14323246D02*
X4778301Y-14304198D01*
X4778301Y-14304198D02*
X4787824Y-14294674D01*
X4787824Y-14294674D02*
X4806872Y-14285150D01*
X4806872Y-14285150D02*
X4825920Y-14285150D01*
X4892586Y-14418484D02*
X4892586Y-14285150D01*
X4892586Y-14218484D02*
X4883063Y-14228008D01*
X4883063Y-14228008D02*
X4892586Y-14237531D01*
X4892586Y-14237531D02*
X4902110Y-14228008D01*
X4902110Y-14228008D02*
X4892586Y-14218484D01*
X4892586Y-14218484D02*
X4892586Y-14237531D01*
X5016396Y-14418484D02*
X4997348Y-14408960D01*
X4997348Y-14408960D02*
X4987824Y-14389912D01*
X4987824Y-14389912D02*
X4987824Y-14218484D01*
X5121158Y-14418484D02*
X5102110Y-14408960D01*
X5102110Y-14408960D02*
X5092586Y-14389912D01*
X5092586Y-14389912D02*
X5092586Y-14218484D01*
X5349729Y-14418484D02*
X5349729Y-14218484D01*
X5349729Y-14218484D02*
X5416396Y-14361341D01*
X5416396Y-14361341D02*
X5483063Y-14218484D01*
X5483063Y-14218484D02*
X5483063Y-14418484D01*
X5664015Y-14418484D02*
X5664015Y-14313722D01*
X5664015Y-14313722D02*
X5654491Y-14294674D01*
X5654491Y-14294674D02*
X5635443Y-14285150D01*
X5635443Y-14285150D02*
X5597348Y-14285150D01*
X5597348Y-14285150D02*
X5578301Y-14294674D01*
X5664015Y-14408960D02*
X5644967Y-14418484D01*
X5644967Y-14418484D02*
X5597348Y-14418484D01*
X5597348Y-14418484D02*
X5578301Y-14408960D01*
X5578301Y-14408960D02*
X5568777Y-14389912D01*
X5568777Y-14389912D02*
X5568777Y-14370865D01*
X5568777Y-14370865D02*
X5578301Y-14351817D01*
X5578301Y-14351817D02*
X5597348Y-14342293D01*
X5597348Y-14342293D02*
X5644967Y-14342293D01*
X5644967Y-14342293D02*
X5664015Y-14332769D01*
X5759253Y-14285150D02*
X5759253Y-14485150D01*
X5759253Y-14294674D02*
X5778301Y-14285150D01*
X5778301Y-14285150D02*
X5816396Y-14285150D01*
X5816396Y-14285150D02*
X5835443Y-14294674D01*
X5835443Y-14294674D02*
X5844967Y-14304198D01*
X5844967Y-14304198D02*
X5854491Y-14323246D01*
X5854491Y-14323246D02*
X5854491Y-14380388D01*
X5854491Y-14380388D02*
X5844967Y-14399436D01*
X5844967Y-14399436D02*
X5835443Y-14408960D01*
X5835443Y-14408960D02*
X5816396Y-14418484D01*
X5816396Y-14418484D02*
X5778301Y-14418484D01*
X5778301Y-14418484D02*
X5759253Y-14408960D01*
X5940205Y-14399436D02*
X5949729Y-14408960D01*
X5949729Y-14408960D02*
X5940205Y-14418484D01*
X5940205Y-14418484D02*
X5930682Y-14408960D01*
X5930682Y-14408960D02*
X5940205Y-14399436D01*
X5940205Y-14399436D02*
X5940205Y-14418484D01*
X5940205Y-14294674D02*
X5949729Y-14304198D01*
X5949729Y-14304198D02*
X5940205Y-14313722D01*
X5940205Y-14313722D02*
X5930682Y-14304198D01*
X5930682Y-14304198D02*
X5940205Y-14294674D01*
X5940205Y-14294674D02*
X5940205Y-14313722D01*
D11*
X4198000Y-14692000D02*
X4308000Y-14802000D01*
X4308000Y-14692000D02*
X4198000Y-14802000D01*
D10*
X4673539Y-14838484D02*
X4559253Y-14838484D01*
X4616396Y-14838484D02*
X4616396Y-14638484D01*
X4616396Y-14638484D02*
X4597348Y-14667055D01*
X4597348Y-14667055D02*
X4578301Y-14686103D01*
X4578301Y-14686103D02*
X4559253Y-14695627D01*
X4759253Y-14819436D02*
X4768777Y-14828960D01*
X4768777Y-14828960D02*
X4759253Y-14838484D01*
X4759253Y-14838484D02*
X4749729Y-14828960D01*
X4749729Y-14828960D02*
X4759253Y-14819436D01*
X4759253Y-14819436D02*
X4759253Y-14838484D01*
X4959253Y-14838484D02*
X4844967Y-14838484D01*
X4902110Y-14838484D02*
X4902110Y-14638484D01*
X4902110Y-14638484D02*
X4883063Y-14667055D01*
X4883063Y-14667055D02*
X4864015Y-14686103D01*
X4864015Y-14686103D02*
X4844967Y-14695627D01*
X5083063Y-14638484D02*
X5102110Y-14638484D01*
X5102110Y-14638484D02*
X5121158Y-14648008D01*
X5121158Y-14648008D02*
X5130682Y-14657531D01*
X5130682Y-14657531D02*
X5140205Y-14676579D01*
X5140205Y-14676579D02*
X5149729Y-14714674D01*
X5149729Y-14714674D02*
X5149729Y-14762293D01*
X5149729Y-14762293D02*
X5140205Y-14800388D01*
X5140205Y-14800388D02*
X5130682Y-14819436D01*
X5130682Y-14819436D02*
X5121158Y-14828960D01*
X5121158Y-14828960D02*
X5102110Y-14838484D01*
X5102110Y-14838484D02*
X5083063Y-14838484D01*
X5083063Y-14838484D02*
X5064015Y-14828960D01*
X5064015Y-14828960D02*
X5054491Y-14819436D01*
X5054491Y-14819436D02*
X5044967Y-14800388D01*
X5044967Y-14800388D02*
X5035444Y-14762293D01*
X5035444Y-14762293D02*
X5035444Y-14714674D01*
X5035444Y-14714674D02*
X5044967Y-14676579D01*
X5044967Y-14676579D02*
X5054491Y-14657531D01*
X5054491Y-14657531D02*
X5064015Y-14648008D01*
X5064015Y-14648008D02*
X5083063Y-14638484D01*
X5273539Y-14638484D02*
X5292586Y-14638484D01*
X5292586Y-14638484D02*
X5311634Y-14648008D01*
X5311634Y-14648008D02*
X5321158Y-14657531D01*
X5321158Y-14657531D02*
X5330682Y-14676579D01*
X5330682Y-14676579D02*
X5340205Y-14714674D01*
X5340205Y-14714674D02*
X5340205Y-14762293D01*
X5340205Y-14762293D02*
X5330682Y-14800388D01*
X5330682Y-14800388D02*
X5321158Y-14819436D01*
X5321158Y-14819436D02*
X5311634Y-14828960D01*
X5311634Y-14828960D02*
X5292586Y-14838484D01*
X5292586Y-14838484D02*
X5273539Y-14838484D01*
X5273539Y-14838484D02*
X5254491Y-14828960D01*
X5254491Y-14828960D02*
X5244967Y-14819436D01*
X5244967Y-14819436D02*
X5235444Y-14800388D01*
X5235444Y-14800388D02*
X5225920Y-14762293D01*
X5225920Y-14762293D02*
X5225920Y-14714674D01*
X5225920Y-14714674D02*
X5235444Y-14676579D01*
X5235444Y-14676579D02*
X5244967Y-14657531D01*
X5244967Y-14657531D02*
X5254491Y-14648008D01*
X5254491Y-14648008D02*
X5273539Y-14638484D01*
X5425920Y-14838484D02*
X5425920Y-14705150D01*
X5425920Y-14724198D02*
X5435444Y-14714674D01*
X5435444Y-14714674D02*
X5454491Y-14705150D01*
X5454491Y-14705150D02*
X5483063Y-14705150D01*
X5483063Y-14705150D02*
X5502110Y-14714674D01*
X5502110Y-14714674D02*
X5511634Y-14733722D01*
X5511634Y-14733722D02*
X5511634Y-14838484D01*
X5511634Y-14733722D02*
X5521158Y-14714674D01*
X5521158Y-14714674D02*
X5540205Y-14705150D01*
X5540205Y-14705150D02*
X5568777Y-14705150D01*
X5568777Y-14705150D02*
X5587825Y-14714674D01*
X5587825Y-14714674D02*
X5597348Y-14733722D01*
X5597348Y-14733722D02*
X5597348Y-14838484D01*
X5692586Y-14838484D02*
X5692586Y-14705150D01*
X5692586Y-14724198D02*
X5702110Y-14714674D01*
X5702110Y-14714674D02*
X5721158Y-14705150D01*
X5721158Y-14705150D02*
X5749729Y-14705150D01*
X5749729Y-14705150D02*
X5768777Y-14714674D01*
X5768777Y-14714674D02*
X5778301Y-14733722D01*
X5778301Y-14733722D02*
X5778301Y-14838484D01*
X5778301Y-14733722D02*
X5787824Y-14714674D01*
X5787824Y-14714674D02*
X5806872Y-14705150D01*
X5806872Y-14705150D02*
X5835443Y-14705150D01*
X5835443Y-14705150D02*
X5854491Y-14714674D01*
X5854491Y-14714674D02*
X5864015Y-14733722D01*
X5864015Y-14733722D02*
X5864015Y-14838484D01*
X6254491Y-14628960D02*
X6083063Y-14886103D01*
X6511634Y-14638484D02*
X6530682Y-14638484D01*
X6530682Y-14638484D02*
X6549729Y-14648008D01*
X6549729Y-14648008D02*
X6559253Y-14657531D01*
X6559253Y-14657531D02*
X6568777Y-14676579D01*
X6568777Y-14676579D02*
X6578301Y-14714674D01*
X6578301Y-14714674D02*
X6578301Y-14762293D01*
X6578301Y-14762293D02*
X6568777Y-14800388D01*
X6568777Y-14800388D02*
X6559253Y-14819436D01*
X6559253Y-14819436D02*
X6549729Y-14828960D01*
X6549729Y-14828960D02*
X6530682Y-14838484D01*
X6530682Y-14838484D02*
X6511634Y-14838484D01*
X6511634Y-14838484D02*
X6492586Y-14828960D01*
X6492586Y-14828960D02*
X6483063Y-14819436D01*
X6483063Y-14819436D02*
X6473539Y-14800388D01*
X6473539Y-14800388D02*
X6464015Y-14762293D01*
X6464015Y-14762293D02*
X6464015Y-14714674D01*
X6464015Y-14714674D02*
X6473539Y-14676579D01*
X6473539Y-14676579D02*
X6483063Y-14657531D01*
X6483063Y-14657531D02*
X6492586Y-14648008D01*
X6492586Y-14648008D02*
X6511634Y-14638484D01*
X6664015Y-14819436D02*
X6673539Y-14828960D01*
X6673539Y-14828960D02*
X6664015Y-14838484D01*
X6664015Y-14838484D02*
X6654491Y-14828960D01*
X6654491Y-14828960D02*
X6664015Y-14819436D01*
X6664015Y-14819436D02*
X6664015Y-14838484D01*
X6797348Y-14638484D02*
X6816396Y-14638484D01*
X6816396Y-14638484D02*
X6835444Y-14648008D01*
X6835444Y-14648008D02*
X6844967Y-14657531D01*
X6844967Y-14657531D02*
X6854491Y-14676579D01*
X6854491Y-14676579D02*
X6864015Y-14714674D01*
X6864015Y-14714674D02*
X6864015Y-14762293D01*
X6864015Y-14762293D02*
X6854491Y-14800388D01*
X6854491Y-14800388D02*
X6844967Y-14819436D01*
X6844967Y-14819436D02*
X6835444Y-14828960D01*
X6835444Y-14828960D02*
X6816396Y-14838484D01*
X6816396Y-14838484D02*
X6797348Y-14838484D01*
X6797348Y-14838484D02*
X6778301Y-14828960D01*
X6778301Y-14828960D02*
X6768777Y-14819436D01*
X6768777Y-14819436D02*
X6759253Y-14800388D01*
X6759253Y-14800388D02*
X6749729Y-14762293D01*
X6749729Y-14762293D02*
X6749729Y-14714674D01*
X6749729Y-14714674D02*
X6759253Y-14676579D01*
X6759253Y-14676579D02*
X6768777Y-14657531D01*
X6768777Y-14657531D02*
X6778301Y-14648008D01*
X6778301Y-14648008D02*
X6797348Y-14638484D01*
X7035444Y-14705150D02*
X7035444Y-14838484D01*
X6987825Y-14628960D02*
X6940206Y-14771817D01*
X6940206Y-14771817D02*
X7064015Y-14771817D01*
X7121158Y-14638484D02*
X7244967Y-14638484D01*
X7244967Y-14638484D02*
X7178301Y-14714674D01*
X7178301Y-14714674D02*
X7206872Y-14714674D01*
X7206872Y-14714674D02*
X7225920Y-14724198D01*
X7225920Y-14724198D02*
X7235444Y-14733722D01*
X7235444Y-14733722D02*
X7244967Y-14752769D01*
X7244967Y-14752769D02*
X7244967Y-14800388D01*
X7244967Y-14800388D02*
X7235444Y-14819436D01*
X7235444Y-14819436D02*
X7225920Y-14828960D01*
X7225920Y-14828960D02*
X7206872Y-14838484D01*
X7206872Y-14838484D02*
X7149729Y-14838484D01*
X7149729Y-14838484D02*
X7130682Y-14828960D01*
X7130682Y-14828960D02*
X7121158Y-14819436D01*
X7311634Y-14638484D02*
X7435444Y-14638484D01*
X7435444Y-14638484D02*
X7368777Y-14714674D01*
X7368777Y-14714674D02*
X7397348Y-14714674D01*
X7397348Y-14714674D02*
X7416396Y-14724198D01*
X7416396Y-14724198D02*
X7425920Y-14733722D01*
X7425920Y-14733722D02*
X7435444Y-14752769D01*
X7435444Y-14752769D02*
X7435444Y-14800388D01*
X7435444Y-14800388D02*
X7425920Y-14819436D01*
X7425920Y-14819436D02*
X7416396Y-14828960D01*
X7416396Y-14828960D02*
X7397348Y-14838484D01*
X7397348Y-14838484D02*
X7340206Y-14838484D01*
X7340206Y-14838484D02*
X7321158Y-14828960D01*
X7321158Y-14828960D02*
X7311634Y-14819436D01*
X7511634Y-14638484D02*
X7511634Y-14676579D01*
X7587825Y-14638484D02*
X7587825Y-14676579D01*
X7883063Y-14914674D02*
X7873539Y-14905150D01*
X7873539Y-14905150D02*
X7854491Y-14876579D01*
X7854491Y-14876579D02*
X7844968Y-14857531D01*
X7844968Y-14857531D02*
X7835444Y-14828960D01*
X7835444Y-14828960D02*
X7825920Y-14781341D01*
X7825920Y-14781341D02*
X7825920Y-14743246D01*
X7825920Y-14743246D02*
X7835444Y-14695627D01*
X7835444Y-14695627D02*
X7844968Y-14667055D01*
X7844968Y-14667055D02*
X7854491Y-14648008D01*
X7854491Y-14648008D02*
X7873539Y-14619436D01*
X7873539Y-14619436D02*
X7883063Y-14609912D01*
X8044968Y-14705150D02*
X8044968Y-14838484D01*
X7997348Y-14628960D02*
X7949729Y-14771817D01*
X7949729Y-14771817D02*
X8073539Y-14771817D01*
X8302110Y-14838484D02*
X8302110Y-14638484D01*
X8387825Y-14838484D02*
X8387825Y-14733722D01*
X8387825Y-14733722D02*
X8378301Y-14714674D01*
X8378301Y-14714674D02*
X8359253Y-14705150D01*
X8359253Y-14705150D02*
X8330682Y-14705150D01*
X8330682Y-14705150D02*
X8311634Y-14714674D01*
X8311634Y-14714674D02*
X8302110Y-14724198D01*
X8511634Y-14838484D02*
X8492587Y-14828960D01*
X8492587Y-14828960D02*
X8483063Y-14819436D01*
X8483063Y-14819436D02*
X8473539Y-14800388D01*
X8473539Y-14800388D02*
X8473539Y-14743246D01*
X8473539Y-14743246D02*
X8483063Y-14724198D01*
X8483063Y-14724198D02*
X8492587Y-14714674D01*
X8492587Y-14714674D02*
X8511634Y-14705150D01*
X8511634Y-14705150D02*
X8540206Y-14705150D01*
X8540206Y-14705150D02*
X8559253Y-14714674D01*
X8559253Y-14714674D02*
X8568777Y-14724198D01*
X8568777Y-14724198D02*
X8578301Y-14743246D01*
X8578301Y-14743246D02*
X8578301Y-14800388D01*
X8578301Y-14800388D02*
X8568777Y-14819436D01*
X8568777Y-14819436D02*
X8559253Y-14828960D01*
X8559253Y-14828960D02*
X8540206Y-14838484D01*
X8540206Y-14838484D02*
X8511634Y-14838484D01*
X8692587Y-14838484D02*
X8673539Y-14828960D01*
X8673539Y-14828960D02*
X8664015Y-14809912D01*
X8664015Y-14809912D02*
X8664015Y-14638484D01*
X8844968Y-14828960D02*
X8825920Y-14838484D01*
X8825920Y-14838484D02*
X8787825Y-14838484D01*
X8787825Y-14838484D02*
X8768777Y-14828960D01*
X8768777Y-14828960D02*
X8759253Y-14809912D01*
X8759253Y-14809912D02*
X8759253Y-14733722D01*
X8759253Y-14733722D02*
X8768777Y-14714674D01*
X8768777Y-14714674D02*
X8787825Y-14705150D01*
X8787825Y-14705150D02*
X8825920Y-14705150D01*
X8825920Y-14705150D02*
X8844968Y-14714674D01*
X8844968Y-14714674D02*
X8854492Y-14733722D01*
X8854492Y-14733722D02*
X8854492Y-14752769D01*
X8854492Y-14752769D02*
X8759253Y-14771817D01*
X8930682Y-14828960D02*
X8949730Y-14838484D01*
X8949730Y-14838484D02*
X8987825Y-14838484D01*
X8987825Y-14838484D02*
X9006873Y-14828960D01*
X9006873Y-14828960D02*
X9016396Y-14809912D01*
X9016396Y-14809912D02*
X9016396Y-14800388D01*
X9016396Y-14800388D02*
X9006873Y-14781341D01*
X9006873Y-14781341D02*
X8987825Y-14771817D01*
X8987825Y-14771817D02*
X8959253Y-14771817D01*
X8959253Y-14771817D02*
X8940206Y-14762293D01*
X8940206Y-14762293D02*
X8930682Y-14743246D01*
X8930682Y-14743246D02*
X8930682Y-14733722D01*
X8930682Y-14733722D02*
X8940206Y-14714674D01*
X8940206Y-14714674D02*
X8959253Y-14705150D01*
X8959253Y-14705150D02*
X8987825Y-14705150D01*
X8987825Y-14705150D02*
X9006873Y-14714674D01*
X9083063Y-14914674D02*
X9092587Y-14905150D01*
X9092587Y-14905150D02*
X9111634Y-14876579D01*
X9111634Y-14876579D02*
X9121158Y-14857531D01*
X9121158Y-14857531D02*
X9130682Y-14828960D01*
X9130682Y-14828960D02*
X9140206Y-14781341D01*
X9140206Y-14781341D02*
X9140206Y-14743246D01*
X9140206Y-14743246D02*
X9130682Y-14695627D01*
X9130682Y-14695627D02*
X9121158Y-14667055D01*
X9121158Y-14667055D02*
X9111634Y-14648008D01*
X9111634Y-14648008D02*
X9092587Y-14619436D01*
X9092587Y-14619436D02*
X9083063Y-14609912D01*
X9444968Y-14914674D02*
X9435444Y-14905150D01*
X9435444Y-14905150D02*
X9416396Y-14876579D01*
X9416396Y-14876579D02*
X9406873Y-14857531D01*
X9406873Y-14857531D02*
X9397349Y-14828960D01*
X9397349Y-14828960D02*
X9387825Y-14781341D01*
X9387825Y-14781341D02*
X9387825Y-14743246D01*
X9387825Y-14743246D02*
X9397349Y-14695627D01*
X9397349Y-14695627D02*
X9406873Y-14667055D01*
X9406873Y-14667055D02*
X9416396Y-14648008D01*
X9416396Y-14648008D02*
X9435444Y-14619436D01*
X9435444Y-14619436D02*
X9444968Y-14609912D01*
X9521158Y-14705150D02*
X9521158Y-14838484D01*
X9521158Y-14724198D02*
X9530682Y-14714674D01*
X9530682Y-14714674D02*
X9549730Y-14705150D01*
X9549730Y-14705150D02*
X9578301Y-14705150D01*
X9578301Y-14705150D02*
X9597349Y-14714674D01*
X9597349Y-14714674D02*
X9606873Y-14733722D01*
X9606873Y-14733722D02*
X9606873Y-14838484D01*
X9730682Y-14838484D02*
X9711634Y-14828960D01*
X9711634Y-14828960D02*
X9702111Y-14819436D01*
X9702111Y-14819436D02*
X9692587Y-14800388D01*
X9692587Y-14800388D02*
X9692587Y-14743246D01*
X9692587Y-14743246D02*
X9702111Y-14724198D01*
X9702111Y-14724198D02*
X9711634Y-14714674D01*
X9711634Y-14714674D02*
X9730682Y-14705150D01*
X9730682Y-14705150D02*
X9759254Y-14705150D01*
X9759254Y-14705150D02*
X9778301Y-14714674D01*
X9778301Y-14714674D02*
X9787825Y-14724198D01*
X9787825Y-14724198D02*
X9797349Y-14743246D01*
X9797349Y-14743246D02*
X9797349Y-14800388D01*
X9797349Y-14800388D02*
X9787825Y-14819436D01*
X9787825Y-14819436D02*
X9778301Y-14828960D01*
X9778301Y-14828960D02*
X9759254Y-14838484D01*
X9759254Y-14838484D02*
X9730682Y-14838484D01*
X9854492Y-14705150D02*
X9930682Y-14705150D01*
X9883063Y-14638484D02*
X9883063Y-14809912D01*
X9883063Y-14809912D02*
X9892587Y-14828960D01*
X9892587Y-14828960D02*
X9911634Y-14838484D01*
X9911634Y-14838484D02*
X9930682Y-14838484D01*
X10149730Y-14705150D02*
X10149730Y-14905150D01*
X10149730Y-14714674D02*
X10168777Y-14705150D01*
X10168777Y-14705150D02*
X10206873Y-14705150D01*
X10206873Y-14705150D02*
X10225920Y-14714674D01*
X10225920Y-14714674D02*
X10235444Y-14724198D01*
X10235444Y-14724198D02*
X10244968Y-14743246D01*
X10244968Y-14743246D02*
X10244968Y-14800388D01*
X10244968Y-14800388D02*
X10235444Y-14819436D01*
X10235444Y-14819436D02*
X10225920Y-14828960D01*
X10225920Y-14828960D02*
X10206873Y-14838484D01*
X10206873Y-14838484D02*
X10168777Y-14838484D01*
X10168777Y-14838484D02*
X10149730Y-14828960D01*
X10359254Y-14838484D02*
X10340206Y-14828960D01*
X10340206Y-14828960D02*
X10330682Y-14809912D01*
X10330682Y-14809912D02*
X10330682Y-14638484D01*
X10521158Y-14838484D02*
X10521158Y-14733722D01*
X10521158Y-14733722D02*
X10511635Y-14714674D01*
X10511635Y-14714674D02*
X10492587Y-14705150D01*
X10492587Y-14705150D02*
X10454492Y-14705150D01*
X10454492Y-14705150D02*
X10435444Y-14714674D01*
X10521158Y-14828960D02*
X10502111Y-14838484D01*
X10502111Y-14838484D02*
X10454492Y-14838484D01*
X10454492Y-14838484D02*
X10435444Y-14828960D01*
X10435444Y-14828960D02*
X10425920Y-14809912D01*
X10425920Y-14809912D02*
X10425920Y-14790865D01*
X10425920Y-14790865D02*
X10435444Y-14771817D01*
X10435444Y-14771817D02*
X10454492Y-14762293D01*
X10454492Y-14762293D02*
X10502111Y-14762293D01*
X10502111Y-14762293D02*
X10521158Y-14752769D01*
X10587825Y-14705150D02*
X10664015Y-14705150D01*
X10616396Y-14638484D02*
X10616396Y-14809912D01*
X10616396Y-14809912D02*
X10625920Y-14828960D01*
X10625920Y-14828960D02*
X10644968Y-14838484D01*
X10644968Y-14838484D02*
X10664015Y-14838484D01*
X10806873Y-14828960D02*
X10787825Y-14838484D01*
X10787825Y-14838484D02*
X10749730Y-14838484D01*
X10749730Y-14838484D02*
X10730682Y-14828960D01*
X10730682Y-14828960D02*
X10721158Y-14809912D01*
X10721158Y-14809912D02*
X10721158Y-14733722D01*
X10721158Y-14733722D02*
X10730682Y-14714674D01*
X10730682Y-14714674D02*
X10749730Y-14705150D01*
X10749730Y-14705150D02*
X10787825Y-14705150D01*
X10787825Y-14705150D02*
X10806873Y-14714674D01*
X10806873Y-14714674D02*
X10816396Y-14733722D01*
X10816396Y-14733722D02*
X10816396Y-14752769D01*
X10816396Y-14752769D02*
X10721158Y-14771817D01*
X10987825Y-14838484D02*
X10987825Y-14638484D01*
X10987825Y-14828960D02*
X10968777Y-14838484D01*
X10968777Y-14838484D02*
X10930682Y-14838484D01*
X10930682Y-14838484D02*
X10911635Y-14828960D01*
X10911635Y-14828960D02*
X10902111Y-14819436D01*
X10902111Y-14819436D02*
X10892587Y-14800388D01*
X10892587Y-14800388D02*
X10892587Y-14743246D01*
X10892587Y-14743246D02*
X10902111Y-14724198D01*
X10902111Y-14724198D02*
X10911635Y-14714674D01*
X10911635Y-14714674D02*
X10930682Y-14705150D01*
X10930682Y-14705150D02*
X10968777Y-14705150D01*
X10968777Y-14705150D02*
X10987825Y-14714674D01*
X11064016Y-14914674D02*
X11073539Y-14905150D01*
X11073539Y-14905150D02*
X11092587Y-14876579D01*
X11092587Y-14876579D02*
X11102111Y-14857531D01*
X11102111Y-14857531D02*
X11111635Y-14828960D01*
X11111635Y-14828960D02*
X11121158Y-14781341D01*
X11121158Y-14781341D02*
X11121158Y-14743246D01*
X11121158Y-14743246D02*
X11111635Y-14695627D01*
X11111635Y-14695627D02*
X11102111Y-14667055D01*
X11102111Y-14667055D02*
X11092587Y-14648008D01*
X11092587Y-14648008D02*
X11073539Y-14619436D01*
X11073539Y-14619436D02*
X11064016Y-14609912D01*
X4308000Y-15011000D02*
G75*
G02*
X4108000Y-15011000I-100000J0D01*
G01*
X4108000Y-15011000D02*
G75*
G02*
X4308000Y-15011000I100000J0D01*
G01*
X4549729Y-14902484D02*
X4673539Y-14902484D01*
X4673539Y-14902484D02*
X4606872Y-14978674D01*
X4606872Y-14978674D02*
X4635444Y-14978674D01*
X4635444Y-14978674D02*
X4654491Y-14988198D01*
X4654491Y-14988198D02*
X4664015Y-14997722D01*
X4664015Y-14997722D02*
X4673539Y-15016769D01*
X4673539Y-15016769D02*
X4673539Y-15064388D01*
X4673539Y-15064388D02*
X4664015Y-15083436D01*
X4664015Y-15083436D02*
X4654491Y-15092960D01*
X4654491Y-15092960D02*
X4635444Y-15102484D01*
X4635444Y-15102484D02*
X4578301Y-15102484D01*
X4578301Y-15102484D02*
X4559253Y-15092960D01*
X4559253Y-15092960D02*
X4549729Y-15083436D01*
X4759253Y-15083436D02*
X4768777Y-15092960D01*
X4768777Y-15092960D02*
X4759253Y-15102484D01*
X4759253Y-15102484D02*
X4749729Y-15092960D01*
X4749729Y-15092960D02*
X4759253Y-15083436D01*
X4759253Y-15083436D02*
X4759253Y-15102484D01*
X4844967Y-14921531D02*
X4854491Y-14912008D01*
X4854491Y-14912008D02*
X4873539Y-14902484D01*
X4873539Y-14902484D02*
X4921158Y-14902484D01*
X4921158Y-14902484D02*
X4940205Y-14912008D01*
X4940205Y-14912008D02*
X4949729Y-14921531D01*
X4949729Y-14921531D02*
X4959253Y-14940579D01*
X4959253Y-14940579D02*
X4959253Y-14959627D01*
X4959253Y-14959627D02*
X4949729Y-14988198D01*
X4949729Y-14988198D02*
X4835444Y-15102484D01*
X4835444Y-15102484D02*
X4959253Y-15102484D01*
X5083063Y-14902484D02*
X5102110Y-14902484D01*
X5102110Y-14902484D02*
X5121158Y-14912008D01*
X5121158Y-14912008D02*
X5130682Y-14921531D01*
X5130682Y-14921531D02*
X5140205Y-14940579D01*
X5140205Y-14940579D02*
X5149729Y-14978674D01*
X5149729Y-14978674D02*
X5149729Y-15026293D01*
X5149729Y-15026293D02*
X5140205Y-15064388D01*
X5140205Y-15064388D02*
X5130682Y-15083436D01*
X5130682Y-15083436D02*
X5121158Y-15092960D01*
X5121158Y-15092960D02*
X5102110Y-15102484D01*
X5102110Y-15102484D02*
X5083063Y-15102484D01*
X5083063Y-15102484D02*
X5064015Y-15092960D01*
X5064015Y-15092960D02*
X5054491Y-15083436D01*
X5054491Y-15083436D02*
X5044967Y-15064388D01*
X5044967Y-15064388D02*
X5035444Y-15026293D01*
X5035444Y-15026293D02*
X5035444Y-14978674D01*
X5035444Y-14978674D02*
X5044967Y-14940579D01*
X5044967Y-14940579D02*
X5054491Y-14921531D01*
X5054491Y-14921531D02*
X5064015Y-14912008D01*
X5064015Y-14912008D02*
X5083063Y-14902484D01*
X5273539Y-14902484D02*
X5292586Y-14902484D01*
X5292586Y-14902484D02*
X5311634Y-14912008D01*
X5311634Y-14912008D02*
X5321158Y-14921531D01*
X5321158Y-14921531D02*
X5330682Y-14940579D01*
X5330682Y-14940579D02*
X5340205Y-14978674D01*
X5340205Y-14978674D02*
X5340205Y-15026293D01*
X5340205Y-15026293D02*
X5330682Y-15064388D01*
X5330682Y-15064388D02*
X5321158Y-15083436D01*
X5321158Y-15083436D02*
X5311634Y-15092960D01*
X5311634Y-15092960D02*
X5292586Y-15102484D01*
X5292586Y-15102484D02*
X5273539Y-15102484D01*
X5273539Y-15102484D02*
X5254491Y-15092960D01*
X5254491Y-15092960D02*
X5244967Y-15083436D01*
X5244967Y-15083436D02*
X5235444Y-15064388D01*
X5235444Y-15064388D02*
X5225920Y-15026293D01*
X5225920Y-15026293D02*
X5225920Y-14978674D01*
X5225920Y-14978674D02*
X5235444Y-14940579D01*
X5235444Y-14940579D02*
X5244967Y-14921531D01*
X5244967Y-14921531D02*
X5254491Y-14912008D01*
X5254491Y-14912008D02*
X5273539Y-14902484D01*
X5425920Y-15102484D02*
X5425920Y-14969150D01*
X5425920Y-14988198D02*
X5435444Y-14978674D01*
X5435444Y-14978674D02*
X5454491Y-14969150D01*
X5454491Y-14969150D02*
X5483063Y-14969150D01*
X5483063Y-14969150D02*
X5502110Y-14978674D01*
X5502110Y-14978674D02*
X5511634Y-14997722D01*
X5511634Y-14997722D02*
X5511634Y-15102484D01*
X5511634Y-14997722D02*
X5521158Y-14978674D01*
X5521158Y-14978674D02*
X5540205Y-14969150D01*
X5540205Y-14969150D02*
X5568777Y-14969150D01*
X5568777Y-14969150D02*
X5587825Y-14978674D01*
X5587825Y-14978674D02*
X5597348Y-14997722D01*
X5597348Y-14997722D02*
X5597348Y-15102484D01*
X5692586Y-15102484D02*
X5692586Y-14969150D01*
X5692586Y-14988198D02*
X5702110Y-14978674D01*
X5702110Y-14978674D02*
X5721158Y-14969150D01*
X5721158Y-14969150D02*
X5749729Y-14969150D01*
X5749729Y-14969150D02*
X5768777Y-14978674D01*
X5768777Y-14978674D02*
X5778301Y-14997722D01*
X5778301Y-14997722D02*
X5778301Y-15102484D01*
X5778301Y-14997722D02*
X5787824Y-14978674D01*
X5787824Y-14978674D02*
X5806872Y-14969150D01*
X5806872Y-14969150D02*
X5835443Y-14969150D01*
X5835443Y-14969150D02*
X5854491Y-14978674D01*
X5854491Y-14978674D02*
X5864015Y-14997722D01*
X5864015Y-14997722D02*
X5864015Y-15102484D01*
X6254491Y-14892960D02*
X6083063Y-15150103D01*
X6511634Y-14902484D02*
X6530682Y-14902484D01*
X6530682Y-14902484D02*
X6549729Y-14912008D01*
X6549729Y-14912008D02*
X6559253Y-14921531D01*
X6559253Y-14921531D02*
X6568777Y-14940579D01*
X6568777Y-14940579D02*
X6578301Y-14978674D01*
X6578301Y-14978674D02*
X6578301Y-15026293D01*
X6578301Y-15026293D02*
X6568777Y-15064388D01*
X6568777Y-15064388D02*
X6559253Y-15083436D01*
X6559253Y-15083436D02*
X6549729Y-15092960D01*
X6549729Y-15092960D02*
X6530682Y-15102484D01*
X6530682Y-15102484D02*
X6511634Y-15102484D01*
X6511634Y-15102484D02*
X6492586Y-15092960D01*
X6492586Y-15092960D02*
X6483063Y-15083436D01*
X6483063Y-15083436D02*
X6473539Y-15064388D01*
X6473539Y-15064388D02*
X6464015Y-15026293D01*
X6464015Y-15026293D02*
X6464015Y-14978674D01*
X6464015Y-14978674D02*
X6473539Y-14940579D01*
X6473539Y-14940579D02*
X6483063Y-14921531D01*
X6483063Y-14921531D02*
X6492586Y-14912008D01*
X6492586Y-14912008D02*
X6511634Y-14902484D01*
X6664015Y-15083436D02*
X6673539Y-15092960D01*
X6673539Y-15092960D02*
X6664015Y-15102484D01*
X6664015Y-15102484D02*
X6654491Y-15092960D01*
X6654491Y-15092960D02*
X6664015Y-15083436D01*
X6664015Y-15083436D02*
X6664015Y-15102484D01*
X6864015Y-15102484D02*
X6749729Y-15102484D01*
X6806872Y-15102484D02*
X6806872Y-14902484D01*
X6806872Y-14902484D02*
X6787825Y-14931055D01*
X6787825Y-14931055D02*
X6768777Y-14950103D01*
X6768777Y-14950103D02*
X6749729Y-14959627D01*
X6940206Y-14921531D02*
X6949729Y-14912008D01*
X6949729Y-14912008D02*
X6968777Y-14902484D01*
X6968777Y-14902484D02*
X7016396Y-14902484D01*
X7016396Y-14902484D02*
X7035444Y-14912008D01*
X7035444Y-14912008D02*
X7044967Y-14921531D01*
X7044967Y-14921531D02*
X7054491Y-14940579D01*
X7054491Y-14940579D02*
X7054491Y-14959627D01*
X7054491Y-14959627D02*
X7044967Y-14988198D01*
X7044967Y-14988198D02*
X6930682Y-15102484D01*
X6930682Y-15102484D02*
X7054491Y-15102484D01*
X7225920Y-14902484D02*
X7187825Y-14902484D01*
X7187825Y-14902484D02*
X7168777Y-14912008D01*
X7168777Y-14912008D02*
X7159253Y-14921531D01*
X7159253Y-14921531D02*
X7140206Y-14950103D01*
X7140206Y-14950103D02*
X7130682Y-14988198D01*
X7130682Y-14988198D02*
X7130682Y-15064388D01*
X7130682Y-15064388D02*
X7140206Y-15083436D01*
X7140206Y-15083436D02*
X7149729Y-15092960D01*
X7149729Y-15092960D02*
X7168777Y-15102484D01*
X7168777Y-15102484D02*
X7206872Y-15102484D01*
X7206872Y-15102484D02*
X7225920Y-15092960D01*
X7225920Y-15092960D02*
X7235444Y-15083436D01*
X7235444Y-15083436D02*
X7244967Y-15064388D01*
X7244967Y-15064388D02*
X7244967Y-15016769D01*
X7244967Y-15016769D02*
X7235444Y-14997722D01*
X7235444Y-14997722D02*
X7225920Y-14988198D01*
X7225920Y-14988198D02*
X7206872Y-14978674D01*
X7206872Y-14978674D02*
X7168777Y-14978674D01*
X7168777Y-14978674D02*
X7149729Y-14988198D01*
X7149729Y-14988198D02*
X7140206Y-14997722D01*
X7140206Y-14997722D02*
X7130682Y-15016769D01*
X7368777Y-14902484D02*
X7387825Y-14902484D01*
X7387825Y-14902484D02*
X7406872Y-14912008D01*
X7406872Y-14912008D02*
X7416396Y-14921531D01*
X7416396Y-14921531D02*
X7425920Y-14940579D01*
X7425920Y-14940579D02*
X7435444Y-14978674D01*
X7435444Y-14978674D02*
X7435444Y-15026293D01*
X7435444Y-15026293D02*
X7425920Y-15064388D01*
X7425920Y-15064388D02*
X7416396Y-15083436D01*
X7416396Y-15083436D02*
X7406872Y-15092960D01*
X7406872Y-15092960D02*
X7387825Y-15102484D01*
X7387825Y-15102484D02*
X7368777Y-15102484D01*
X7368777Y-15102484D02*
X7349729Y-15092960D01*
X7349729Y-15092960D02*
X7340206Y-15083436D01*
X7340206Y-15083436D02*
X7330682Y-15064388D01*
X7330682Y-15064388D02*
X7321158Y-15026293D01*
X7321158Y-15026293D02*
X7321158Y-14978674D01*
X7321158Y-14978674D02*
X7330682Y-14940579D01*
X7330682Y-14940579D02*
X7340206Y-14921531D01*
X7340206Y-14921531D02*
X7349729Y-14912008D01*
X7349729Y-14912008D02*
X7368777Y-14902484D01*
X7511634Y-14902484D02*
X7511634Y-14940579D01*
X7587825Y-14902484D02*
X7587825Y-14940579D01*
X7883063Y-15178674D02*
X7873539Y-15169150D01*
X7873539Y-15169150D02*
X7854491Y-15140579D01*
X7854491Y-15140579D02*
X7844968Y-15121531D01*
X7844968Y-15121531D02*
X7835444Y-15092960D01*
X7835444Y-15092960D02*
X7825920Y-15045341D01*
X7825920Y-15045341D02*
X7825920Y-15007246D01*
X7825920Y-15007246D02*
X7835444Y-14959627D01*
X7835444Y-14959627D02*
X7844968Y-14931055D01*
X7844968Y-14931055D02*
X7854491Y-14912008D01*
X7854491Y-14912008D02*
X7873539Y-14883436D01*
X7873539Y-14883436D02*
X7883063Y-14873912D01*
X8044968Y-14969150D02*
X8044968Y-15102484D01*
X7997348Y-14892960D02*
X7949729Y-15035817D01*
X7949729Y-15035817D02*
X8073539Y-15035817D01*
X8302110Y-15102484D02*
X8302110Y-14902484D01*
X8387825Y-15102484D02*
X8387825Y-14997722D01*
X8387825Y-14997722D02*
X8378301Y-14978674D01*
X8378301Y-14978674D02*
X8359253Y-14969150D01*
X8359253Y-14969150D02*
X8330682Y-14969150D01*
X8330682Y-14969150D02*
X8311634Y-14978674D01*
X8311634Y-14978674D02*
X8302110Y-14988198D01*
X8511634Y-15102484D02*
X8492587Y-15092960D01*
X8492587Y-15092960D02*
X8483063Y-15083436D01*
X8483063Y-15083436D02*
X8473539Y-15064388D01*
X8473539Y-15064388D02*
X8473539Y-15007246D01*
X8473539Y-15007246D02*
X8483063Y-14988198D01*
X8483063Y-14988198D02*
X8492587Y-14978674D01*
X8492587Y-14978674D02*
X8511634Y-14969150D01*
X8511634Y-14969150D02*
X8540206Y-14969150D01*
X8540206Y-14969150D02*
X8559253Y-14978674D01*
X8559253Y-14978674D02*
X8568777Y-14988198D01*
X8568777Y-14988198D02*
X8578301Y-15007246D01*
X8578301Y-15007246D02*
X8578301Y-15064388D01*
X8578301Y-15064388D02*
X8568777Y-15083436D01*
X8568777Y-15083436D02*
X8559253Y-15092960D01*
X8559253Y-15092960D02*
X8540206Y-15102484D01*
X8540206Y-15102484D02*
X8511634Y-15102484D01*
X8692587Y-15102484D02*
X8673539Y-15092960D01*
X8673539Y-15092960D02*
X8664015Y-15073912D01*
X8664015Y-15073912D02*
X8664015Y-14902484D01*
X8844968Y-15092960D02*
X8825920Y-15102484D01*
X8825920Y-15102484D02*
X8787825Y-15102484D01*
X8787825Y-15102484D02*
X8768777Y-15092960D01*
X8768777Y-15092960D02*
X8759253Y-15073912D01*
X8759253Y-15073912D02*
X8759253Y-14997722D01*
X8759253Y-14997722D02*
X8768777Y-14978674D01*
X8768777Y-14978674D02*
X8787825Y-14969150D01*
X8787825Y-14969150D02*
X8825920Y-14969150D01*
X8825920Y-14969150D02*
X8844968Y-14978674D01*
X8844968Y-14978674D02*
X8854492Y-14997722D01*
X8854492Y-14997722D02*
X8854492Y-15016769D01*
X8854492Y-15016769D02*
X8759253Y-15035817D01*
X8930682Y-15092960D02*
X8949730Y-15102484D01*
X8949730Y-15102484D02*
X8987825Y-15102484D01*
X8987825Y-15102484D02*
X9006873Y-15092960D01*
X9006873Y-15092960D02*
X9016396Y-15073912D01*
X9016396Y-15073912D02*
X9016396Y-15064388D01*
X9016396Y-15064388D02*
X9006873Y-15045341D01*
X9006873Y-15045341D02*
X8987825Y-15035817D01*
X8987825Y-15035817D02*
X8959253Y-15035817D01*
X8959253Y-15035817D02*
X8940206Y-15026293D01*
X8940206Y-15026293D02*
X8930682Y-15007246D01*
X8930682Y-15007246D02*
X8930682Y-14997722D01*
X8930682Y-14997722D02*
X8940206Y-14978674D01*
X8940206Y-14978674D02*
X8959253Y-14969150D01*
X8959253Y-14969150D02*
X8987825Y-14969150D01*
X8987825Y-14969150D02*
X9006873Y-14978674D01*
X9083063Y-15178674D02*
X9092587Y-15169150D01*
X9092587Y-15169150D02*
X9111634Y-15140579D01*
X9111634Y-15140579D02*
X9121158Y-15121531D01*
X9121158Y-15121531D02*
X9130682Y-15092960D01*
X9130682Y-15092960D02*
X9140206Y-15045341D01*
X9140206Y-15045341D02*
X9140206Y-15007246D01*
X9140206Y-15007246D02*
X9130682Y-14959627D01*
X9130682Y-14959627D02*
X9121158Y-14931055D01*
X9121158Y-14931055D02*
X9111634Y-14912008D01*
X9111634Y-14912008D02*
X9092587Y-14883436D01*
X9092587Y-14883436D02*
X9083063Y-14873912D01*
X9444968Y-15178674D02*
X9435444Y-15169150D01*
X9435444Y-15169150D02*
X9416396Y-15140579D01*
X9416396Y-15140579D02*
X9406873Y-15121531D01*
X9406873Y-15121531D02*
X9397349Y-15092960D01*
X9397349Y-15092960D02*
X9387825Y-15045341D01*
X9387825Y-15045341D02*
X9387825Y-15007246D01*
X9387825Y-15007246D02*
X9397349Y-14959627D01*
X9397349Y-14959627D02*
X9406873Y-14931055D01*
X9406873Y-14931055D02*
X9416396Y-14912008D01*
X9416396Y-14912008D02*
X9435444Y-14883436D01*
X9435444Y-14883436D02*
X9444968Y-14873912D01*
X9521158Y-14969150D02*
X9521158Y-15102484D01*
X9521158Y-14988198D02*
X9530682Y-14978674D01*
X9530682Y-14978674D02*
X9549730Y-14969150D01*
X9549730Y-14969150D02*
X9578301Y-14969150D01*
X9578301Y-14969150D02*
X9597349Y-14978674D01*
X9597349Y-14978674D02*
X9606873Y-14997722D01*
X9606873Y-14997722D02*
X9606873Y-15102484D01*
X9730682Y-15102484D02*
X9711634Y-15092960D01*
X9711634Y-15092960D02*
X9702111Y-15083436D01*
X9702111Y-15083436D02*
X9692587Y-15064388D01*
X9692587Y-15064388D02*
X9692587Y-15007246D01*
X9692587Y-15007246D02*
X9702111Y-14988198D01*
X9702111Y-14988198D02*
X9711634Y-14978674D01*
X9711634Y-14978674D02*
X9730682Y-14969150D01*
X9730682Y-14969150D02*
X9759254Y-14969150D01*
X9759254Y-14969150D02*
X9778301Y-14978674D01*
X9778301Y-14978674D02*
X9787825Y-14988198D01*
X9787825Y-14988198D02*
X9797349Y-15007246D01*
X9797349Y-15007246D02*
X9797349Y-15064388D01*
X9797349Y-15064388D02*
X9787825Y-15083436D01*
X9787825Y-15083436D02*
X9778301Y-15092960D01*
X9778301Y-15092960D02*
X9759254Y-15102484D01*
X9759254Y-15102484D02*
X9730682Y-15102484D01*
X9854492Y-14969150D02*
X9930682Y-14969150D01*
X9883063Y-14902484D02*
X9883063Y-15073912D01*
X9883063Y-15073912D02*
X9892587Y-15092960D01*
X9892587Y-15092960D02*
X9911634Y-15102484D01*
X9911634Y-15102484D02*
X9930682Y-15102484D01*
X10149730Y-14969150D02*
X10149730Y-15169150D01*
X10149730Y-14978674D02*
X10168777Y-14969150D01*
X10168777Y-14969150D02*
X10206873Y-14969150D01*
X10206873Y-14969150D02*
X10225920Y-14978674D01*
X10225920Y-14978674D02*
X10235444Y-14988198D01*
X10235444Y-14988198D02*
X10244968Y-15007246D01*
X10244968Y-15007246D02*
X10244968Y-15064388D01*
X10244968Y-15064388D02*
X10235444Y-15083436D01*
X10235444Y-15083436D02*
X10225920Y-15092960D01*
X10225920Y-15092960D02*
X10206873Y-15102484D01*
X10206873Y-15102484D02*
X10168777Y-15102484D01*
X10168777Y-15102484D02*
X10149730Y-15092960D01*
X10359254Y-15102484D02*
X10340206Y-15092960D01*
X10340206Y-15092960D02*
X10330682Y-15073912D01*
X10330682Y-15073912D02*
X10330682Y-14902484D01*
X10521158Y-15102484D02*
X10521158Y-14997722D01*
X10521158Y-14997722D02*
X10511635Y-14978674D01*
X10511635Y-14978674D02*
X10492587Y-14969150D01*
X10492587Y-14969150D02*
X10454492Y-14969150D01*
X10454492Y-14969150D02*
X10435444Y-14978674D01*
X10521158Y-15092960D02*
X10502111Y-15102484D01*
X10502111Y-15102484D02*
X10454492Y-15102484D01*
X10454492Y-15102484D02*
X10435444Y-15092960D01*
X10435444Y-15092960D02*
X10425920Y-15073912D01*
X10425920Y-15073912D02*
X10425920Y-15054865D01*
X10425920Y-15054865D02*
X10435444Y-15035817D01*
X10435444Y-15035817D02*
X10454492Y-15026293D01*
X10454492Y-15026293D02*
X10502111Y-15026293D01*
X10502111Y-15026293D02*
X10521158Y-15016769D01*
X10587825Y-14969150D02*
X10664015Y-14969150D01*
X10616396Y-14902484D02*
X10616396Y-15073912D01*
X10616396Y-15073912D02*
X10625920Y-15092960D01*
X10625920Y-15092960D02*
X10644968Y-15102484D01*
X10644968Y-15102484D02*
X10664015Y-15102484D01*
X10806873Y-15092960D02*
X10787825Y-15102484D01*
X10787825Y-15102484D02*
X10749730Y-15102484D01*
X10749730Y-15102484D02*
X10730682Y-15092960D01*
X10730682Y-15092960D02*
X10721158Y-15073912D01*
X10721158Y-15073912D02*
X10721158Y-14997722D01*
X10721158Y-14997722D02*
X10730682Y-14978674D01*
X10730682Y-14978674D02*
X10749730Y-14969150D01*
X10749730Y-14969150D02*
X10787825Y-14969150D01*
X10787825Y-14969150D02*
X10806873Y-14978674D01*
X10806873Y-14978674D02*
X10816396Y-14997722D01*
X10816396Y-14997722D02*
X10816396Y-15016769D01*
X10816396Y-15016769D02*
X10721158Y-15035817D01*
X10987825Y-15102484D02*
X10987825Y-14902484D01*
X10987825Y-15092960D02*
X10968777Y-15102484D01*
X10968777Y-15102484D02*
X10930682Y-15102484D01*
X10930682Y-15102484D02*
X10911635Y-15092960D01*
X10911635Y-15092960D02*
X10902111Y-15083436D01*
X10902111Y-15083436D02*
X10892587Y-15064388D01*
X10892587Y-15064388D02*
X10892587Y-15007246D01*
X10892587Y-15007246D02*
X10902111Y-14988198D01*
X10902111Y-14988198D02*
X10911635Y-14978674D01*
X10911635Y-14978674D02*
X10930682Y-14969150D01*
X10930682Y-14969150D02*
X10968777Y-14969150D01*
X10968777Y-14969150D02*
X10987825Y-14978674D01*
X11064016Y-15178674D02*
X11073539Y-15169150D01*
X11073539Y-15169150D02*
X11092587Y-15140579D01*
X11092587Y-15140579D02*
X11102111Y-15121531D01*
X11102111Y-15121531D02*
X11111635Y-15092960D01*
X11111635Y-15092960D02*
X11121158Y-15045341D01*
X11121158Y-15045341D02*
X11121158Y-15007246D01*
X11121158Y-15007246D02*
X11111635Y-14959627D01*
X11111635Y-14959627D02*
X11102111Y-14931055D01*
X11102111Y-14931055D02*
X11092587Y-14912008D01*
X11092587Y-14912008D02*
X11073539Y-14883436D01*
X11073539Y-14883436D02*
X11064016Y-14873912D01*
M02*
