M48
; DRILL file {KiCad 8.0.1} date 2024-11-10T18:34:55+0100
; FORMAT={-:-/ absolute / metric / decimal}
; #@! TF.CreationDate,2024-11-10T18:34:55+01:00
; #@! TF.GenerationSoftware,Kicad,Pcbnew,8.0.1
; #@! TF.FileFunction,Plated,1,2,PTH
FMAT,2
METRIC
; #@! TA.AperFunction,Plated,PTH,ViaDrill
T1C0.400
; #@! TA.AperFunction,Plated,PTH,ComponentDrill
T2C0.400
; #@! TA.AperFunction,Plated,PTH,ComponentDrill
T3C0.460
; #@! TA.AperFunction,Plated,PTH,ComponentDrill
T4C0.600
; #@! TA.AperFunction,Plated,PTH,ComponentDrill
T5C0.800
; #@! TA.AperFunction,Plated,PTH,ComponentDrill
T6C1.000
; #@! TA.AperFunction,Plated,PTH,ComponentDrill
T7C1.100
; #@! TA.AperFunction,Plated,PTH,ComponentDrill
T8C1.400
; #@! TA.AperFunction,Plated,PTH,ComponentDrill
T9C2.200
%
G90
G05
T1
X45.62Y-68.988
X45.62Y-71.528
X45.62Y-74.068
X45.62Y-76.608
X45.62Y-79.148
X45.62Y-81.688
X45.62Y-84.228
X45.62Y-86.768
X45.62Y-89.308
X45.62Y-91.848
X45.62Y-94.388
X45.62Y-102.008
X45.62Y-109.628
X45.62Y-112.168
X45.62Y-114.708
X45.62Y-117.248
X45.62Y-119.788
X45.62Y-122.328
X45.62Y-124.868
X45.62Y-127.408
X45.62Y-129.948
X45.62Y-132.488
X48.16Y-63.908
X48.16Y-66.448
X48.16Y-68.988
X48.16Y-71.528
X48.16Y-76.608
X48.16Y-86.768
X48.16Y-89.308
X48.16Y-94.388
X48.16Y-102.008
X48.16Y-109.628
X48.16Y-117.248
X48.16Y-124.868
X48.16Y-127.408
X48.16Y-129.948
X48.16Y-132.488
X48.16Y-135.028
X48.16Y-137.568
X49.301Y-82.194
X50.7Y-63.908
X50.7Y-66.448
X50.7Y-68.988
X50.7Y-71.528
X50.7Y-94.388
X50.7Y-96.928
X50.7Y-109.628
X50.7Y-124.868
X50.7Y-132.488
X50.7Y-135.028
X50.7Y-137.568
X53.24Y-63.908
X53.24Y-66.448
X53.24Y-68.988
X53.24Y-71.528
X53.24Y-74.068
X53.24Y-76.608
X53.24Y-84.228
X53.24Y-91.848
X53.24Y-94.388
X53.24Y-96.928
X53.24Y-104.548
X53.24Y-109.628
X53.24Y-112.168
X53.24Y-114.708
X53.24Y-117.248
X53.24Y-119.788
X53.24Y-124.868
X53.24Y-132.488
X53.24Y-135.028
X53.24Y-137.568
X54.178Y-82.271
X54.991Y-95.758
X54.991Y-101.092
X55.78Y-63.908
X55.78Y-66.448
X55.78Y-68.988
X55.78Y-74.068
X55.78Y-79.148
X55.78Y-91.848
X55.78Y-99.468
X55.78Y-112.168
X55.78Y-117.248
X55.78Y-119.788
X55.78Y-124.868
X55.78Y-135.028
X55.78Y-137.568
X56.769Y-84.455
X56.931Y-86.136
X58.32Y-63.908
X58.32Y-66.448
X58.32Y-68.988
X58.32Y-74.068
X58.32Y-79.148
X58.32Y-81.688
X58.32Y-109.628
X58.32Y-114.708
X58.32Y-119.788
X58.32Y-135.028
X58.32Y-137.568
X60.757Y-123.647
X60.86Y-63.908
X60.86Y-71.528
X60.86Y-76.608
X60.86Y-79.148
X60.86Y-89.308
X60.86Y-91.848
X60.86Y-94.388
X60.86Y-109.628
X60.86Y-112.168
X60.86Y-119.788
X60.86Y-135.028
X60.86Y-137.568
X62.357Y-96.52
X62.357Y-100.076
X62.611Y-102.489
X62.687Y-121.717
X63.4Y-63.908
X63.4Y-68.988
X63.4Y-109.628
X63.4Y-112.168
X63.4Y-114.708
X63.4Y-124.868
X63.4Y-135.028
X63.4Y-137.568
X64.262Y-101.473
X64.516Y-97.663
X64.897Y-100.711
X65.024Y-99.06
X65.659Y-93.853
X65.94Y-63.908
X65.94Y-91.848
X65.94Y-96.928
X65.94Y-107.088
X65.94Y-109.628
X65.94Y-112.168
X65.94Y-119.788
X65.94Y-124.868
X65.94Y-135.028
X65.94Y-137.568
X68.48Y-63.908
X68.48Y-66.448
X68.48Y-74.068
X68.48Y-91.848
X68.48Y-117.248
X68.48Y-124.868
X68.48Y-135.028
X68.48Y-137.568
X69.24Y-111.709
X70.002Y-110.49
X70.51Y-113.436
X70.777Y-105.686
X71.02Y-63.908
X71.02Y-74.068
X71.02Y-79.148
X71.02Y-81.688
X71.02Y-84.228
X71.02Y-119.788
X71.02Y-124.868
X71.02Y-127.408
X71.02Y-129.948
X71.02Y-135.028
X71.02Y-137.568
X71.387Y-88.559
X71.4Y-110.85
X73.406Y-106.934
X73.406Y-123.19
X73.56Y-63.908
X73.56Y-66.448
X73.56Y-68.988
X73.56Y-71.528
X73.56Y-74.068
X73.56Y-76.608
X73.56Y-96.928
X73.56Y-99.468
X73.56Y-124.868
X73.56Y-127.408
X73.56Y-132.488
X73.56Y-135.028
X73.56Y-137.568
X74.041Y-85.344
X74.6Y-110.75
X74.828Y-120.701
X74.828Y-123.139
X75.299Y-88.138
X75.489Y-111.811
X75.565Y-113.157
X76.1Y-63.908
X76.1Y-66.448
X76.1Y-68.988
X76.1Y-99.468
X76.1Y-132.488
X76.1Y-135.028
X76.1Y-137.568
X76.264Y-107.114
X76.454Y-114.935
X77.381Y-87.114
X77.47Y-97.155
X77.724Y-107.188
X78.64Y-63.908
X78.64Y-66.448
X78.64Y-68.988
X78.64Y-74.068
X78.64Y-76.608
X78.64Y-79.148
X78.64Y-81.688
X78.64Y-84.228
X78.64Y-124.868
X78.64Y-135.028
X78.64Y-137.568
X78.855Y-89.451
X78.994Y-108.331
X80.01Y-107.696
X80.264Y-111.125
X80.391Y-120.777
X80.899Y-88.519
X81.18Y-63.908
X81.18Y-66.448
X81.18Y-68.988
X81.18Y-84.228
X81.18Y-122.328
X81.18Y-124.868
X81.18Y-135.028
X81.18Y-137.568
X81.534Y-114.173
X82.605Y-97.957
X83.25Y-106.45
X83.72Y-63.908
X83.72Y-66.448
X83.72Y-71.528
X83.72Y-76.608
X83.72Y-81.688
X83.72Y-124.868
X83.72Y-127.408
X83.72Y-129.948
X83.72Y-135.028
X83.72Y-137.568
X83.78Y-108.672
X84.3Y-103.25
X84.328Y-106.934
X84.455Y-89.027
X84.8Y-98.1
X84.85Y-96.3
X86.233Y-111.125
X86.26Y-63.908
X86.26Y-66.448
X86.26Y-68.988
X86.26Y-71.528
X86.26Y-74.068
X86.26Y-76.608
X86.26Y-79.148
X86.26Y-81.688
X86.26Y-99.468
X86.26Y-117.248
X86.26Y-119.788
X86.26Y-135.028
X86.26Y-137.568
X87.3Y-95.4
X88.392Y-114.427
X88.8Y-63.908
X88.8Y-66.448
X88.8Y-68.988
X88.8Y-71.528
X88.8Y-74.068
X88.8Y-76.608
X88.8Y-79.148
X88.8Y-81.688
X88.8Y-112.168
X88.8Y-119.788
X88.8Y-122.328
X88.8Y-127.408
X88.8Y-129.948
X88.8Y-135.028
X88.8Y-137.568
X91.313Y-120.396
X91.34Y-63.908
X91.34Y-66.448
X91.34Y-68.988
X91.34Y-71.528
X91.34Y-74.068
X91.34Y-76.608
X91.34Y-79.148
X91.34Y-81.688
X91.34Y-102.008
X91.34Y-104.548
X91.34Y-114.708
X91.34Y-117.248
X91.34Y-129.948
X91.34Y-132.488
X91.34Y-135.028
X91.34Y-137.568
X91.44Y-112.395
X93.88Y-63.908
X93.88Y-66.448
X93.88Y-71.528
X93.88Y-76.608
X93.88Y-81.688
X93.88Y-91.848
X93.88Y-94.388
X93.88Y-104.548
X93.88Y-122.328
X93.88Y-124.868
X93.88Y-132.488
X93.88Y-135.028
X93.88Y-137.568
X96.42Y-63.908
X96.42Y-66.448
X96.42Y-68.988
X96.42Y-71.528
X96.42Y-84.228
X96.42Y-96.928
X96.42Y-109.628
X96.42Y-114.708
X96.42Y-122.328
X96.42Y-124.868
X96.42Y-127.408
X96.42Y-129.948
X96.42Y-132.488
X96.42Y-135.028
X96.42Y-137.568
X98.679Y-112.268
X98.96Y-63.908
X98.96Y-66.448
X98.96Y-68.988
X98.96Y-71.528
X98.96Y-76.608
X98.96Y-79.148
X98.96Y-81.688
X98.96Y-84.228
X98.96Y-94.388
X98.96Y-96.928
X98.96Y-99.468
X98.96Y-109.628
X98.96Y-124.868
X98.96Y-132.488
X98.96Y-135.028
X98.96Y-137.568
X99.771Y-116.942
X101.5Y-63.908
X101.5Y-66.448
X101.5Y-68.988
X101.5Y-71.528
X101.5Y-79.148
X101.5Y-81.688
X101.5Y-84.228
X101.5Y-96.928
X101.5Y-99.468
X101.5Y-104.548
X101.5Y-119.788
X101.5Y-124.868
X101.5Y-127.408
X101.5Y-129.948
X101.5Y-132.488
X101.5Y-135.028
X101.5Y-137.568
X101.854Y-105.918
X102.997Y-112.395
X103.124Y-104.902
X104.013Y-111.379
X104.04Y-63.908
X104.04Y-66.448
X104.04Y-68.988
X104.04Y-71.528
X104.04Y-79.148
X104.04Y-84.228
X104.04Y-86.768
X104.04Y-107.088
X104.04Y-119.788
X104.04Y-127.408
X104.04Y-129.948
X104.04Y-132.488
X104.04Y-135.028
X104.04Y-137.568
X104.14Y-96.52
X104.445Y-117.399
X105.156Y-104.394
X105.41Y-110.49
X106.58Y-63.908
X106.58Y-66.448
X106.58Y-68.988
X106.58Y-99.468
X106.58Y-119.788
X106.58Y-132.488
X106.58Y-135.028
X106.58Y-137.568
X107.442Y-106.426
X108.839Y-98.679
X109.12Y-63.908
X109.12Y-66.448
X109.12Y-68.988
X109.12Y-71.528
X109.12Y-79.148
X109.12Y-81.688
X109.12Y-91.848
X109.12Y-119.788
X109.12Y-127.408
X109.12Y-129.948
X109.12Y-132.488
X109.12Y-135.028
X109.12Y-137.568
X110.541Y-117.399
X111.455Y-120.548
X111.633Y-97.917
X111.66Y-63.908
X111.66Y-66.448
X111.66Y-68.988
X111.66Y-79.148
X111.66Y-81.688
X111.66Y-91.848
X111.66Y-94.388
X111.66Y-104.548
X111.66Y-132.488
X111.66Y-135.028
X111.66Y-137.568
X112.268Y-99.187
X112.649Y-109.982
X112.725Y-119.482
X113.03Y-101.143
X113.233Y-103.53
X114.2Y-63.908
X114.2Y-66.448
X114.2Y-68.988
X114.2Y-84.228
X114.2Y-86.768
X114.2Y-89.308
X114.2Y-94.388
X114.2Y-96.928
X114.2Y-127.408
X114.2Y-129.948
X114.2Y-132.488
X114.2Y-135.028
X114.2Y-137.568
X114.681Y-110.363
X116.205Y-113.411
X116.74Y-68.988
X116.74Y-71.528
X116.74Y-76.608
X116.74Y-79.148
X116.74Y-81.688
X116.74Y-89.308
X116.74Y-96.928
X116.74Y-117.248
X116.74Y-122.328
X116.74Y-129.948
X116.74Y-132.488
X118.618Y-112.776
X119.28Y-68.988
X119.28Y-71.528
X119.28Y-74.068
X119.28Y-76.608
X119.28Y-79.148
X119.28Y-81.688
X119.28Y-84.228
X119.28Y-86.768
X119.28Y-89.308
X119.28Y-91.848
X119.28Y-94.388
X119.28Y-96.928
X119.28Y-104.548
X119.28Y-107.088
X119.28Y-109.628
X119.28Y-117.248
X119.28Y-119.788
X119.28Y-122.328
X119.28Y-124.868
X119.28Y-127.408
X119.28Y-129.948
X119.28Y-132.488
X121.82Y-63.908
X121.82Y-66.448
X121.82Y-68.988
X121.82Y-71.528
X121.82Y-74.068
X121.82Y-76.608
X121.82Y-79.148
X121.82Y-81.688
X121.82Y-84.228
X121.82Y-86.768
X121.82Y-89.308
X121.82Y-91.848
X121.82Y-94.388
X121.82Y-96.928
X121.82Y-127.408
X121.82Y-129.948
X121.82Y-132.488
X121.82Y-135.028
X121.82Y-137.568
X124.36Y-63.908
X124.36Y-66.448
X124.36Y-68.988
X124.36Y-71.528
X124.36Y-74.068
X124.36Y-76.608
X124.36Y-79.148
X124.36Y-81.688
X124.36Y-84.228
X124.36Y-86.768
X124.36Y-94.388
X124.36Y-104.548
X124.36Y-119.788
X124.36Y-122.328
X124.36Y-127.408
X124.36Y-129.948
X124.36Y-137.568
X124.46Y-109.22
X125.65Y-116.25
X126.9Y-63.908
X126.9Y-66.448
X126.9Y-68.988
X126.9Y-71.528
X126.9Y-74.068
X126.9Y-76.608
X126.9Y-79.148
X126.9Y-81.688
X126.9Y-84.228
X126.9Y-86.768
X126.9Y-89.308
X126.9Y-91.848
X126.9Y-94.388
X126.9Y-96.928
X126.9Y-99.468
X126.9Y-104.548
X126.9Y-127.408
X126.9Y-129.948
X126.9Y-137.568
X127.097Y-102.317
X127.508Y-118.745
X128.699Y-110.284
X129.394Y-109.638
X129.44Y-63.908
X129.44Y-66.448
X129.44Y-68.988
X129.44Y-71.528
X129.44Y-74.068
X129.44Y-76.608
X129.44Y-79.148
X129.44Y-81.688
X129.44Y-84.228
X129.44Y-86.768
X129.44Y-89.308
X129.44Y-91.848
X129.44Y-94.388
X129.44Y-96.928
X129.44Y-102.008
X129.44Y-104.548
X129.44Y-122.328
X129.44Y-124.868
X129.44Y-127.408
X129.44Y-129.948
X129.44Y-137.568
X129.941Y-99.969
X131.826Y-113.03
X131.98Y-63.908
X131.98Y-66.448
X131.98Y-68.988
X131.98Y-71.528
X131.98Y-74.068
X131.98Y-76.608
X131.98Y-79.148
X131.98Y-81.688
X131.98Y-84.228
X131.98Y-86.768
X131.98Y-89.308
X131.98Y-91.848
X131.98Y-94.388
X131.98Y-99.468
X131.98Y-102.008
X131.98Y-104.548
X131.98Y-127.408
X131.98Y-129.948
X131.98Y-137.568
X132.481Y-97.429
X134.52Y-63.908
X134.52Y-66.448
X134.52Y-68.988
X134.52Y-71.528
X134.52Y-89.308
X134.52Y-91.848
X134.52Y-96.928
X134.52Y-99.468
X134.52Y-109.628
X134.52Y-122.328
X134.52Y-127.408
X134.52Y-129.948
X134.52Y-137.568
X135.046Y-94.865
X137.06Y-63.908
X137.06Y-66.448
X137.06Y-68.988
X137.06Y-71.528
X137.06Y-74.068
X137.06Y-79.148
X137.06Y-81.688
X137.06Y-84.228
X137.06Y-94.388
X137.06Y-104.548
X137.06Y-109.628
X137.06Y-112.168
X137.06Y-119.788
X137.06Y-127.408
X137.06Y-129.948
X137.06Y-137.568
X139.6Y-63.908
X139.6Y-66.448
X139.6Y-68.988
X139.6Y-71.528
X139.6Y-74.068
X139.6Y-76.608
X139.6Y-79.148
X139.6Y-81.688
X139.6Y-84.228
X139.6Y-86.768
X139.6Y-112.168
X139.6Y-117.248
X139.6Y-119.788
X139.6Y-122.328
X139.6Y-124.868
X139.6Y-127.408
X139.6Y-129.948
X139.6Y-137.568
X142.14Y-63.908
X142.14Y-66.448
X142.14Y-68.988
X142.14Y-71.528
X142.14Y-74.068
X142.14Y-76.608
X142.14Y-79.148
X142.14Y-81.688
X142.14Y-84.228
X142.14Y-99.468
X142.14Y-112.168
X142.14Y-122.328
X142.14Y-124.868
X142.14Y-127.408
X142.14Y-129.948
X142.14Y-137.568
X144.68Y-63.908
X144.68Y-66.448
X144.68Y-68.988
X144.68Y-71.528
X144.68Y-74.068
X144.68Y-76.608
X144.68Y-79.148
X144.68Y-81.688
X144.68Y-84.228
X144.68Y-86.768
X144.68Y-89.308
X144.68Y-91.848
X144.68Y-94.388
X144.68Y-96.928
X144.68Y-99.468
X144.68Y-102.008
X144.68Y-104.548
X144.68Y-112.168
X144.68Y-122.328
X144.68Y-124.868
X144.68Y-127.408
X144.68Y-129.948
X144.68Y-132.488
X144.68Y-135.028
X144.68Y-137.568
T2
X50.935Y-85.286
X50.935Y-86.136
X50.935Y-86.986
X50.935Y-87.836
X50.935Y-88.686
X50.935Y-89.536
X50.935Y-90.386
X50.935Y-91.236
X52.285Y-85.286
X52.285Y-86.136
X52.285Y-86.986
X52.285Y-87.836
X52.285Y-88.686
X52.285Y-89.536
X52.285Y-90.386
X52.285Y-91.236
T3
X139.708Y-109.92
X139.708Y-118.68
T5
X83.63Y-68.144
X83.63Y-73.144
X83.681Y-79.026
X83.681Y-84.026
X94.196Y-68.064
X94.196Y-73.064
X94.247Y-78.986
X94.247Y-83.986
T6
X66.345Y-86.258
X66.396Y-89.002
X69.139Y-86.258
X71.831Y-86.258
X117.348Y-87.044
X117.348Y-91.694
T7
X49.75Y-113.481
X49.75Y-116.021
X49.75Y-120.085
X49.75Y-122.625
T8
X52.121Y-128.099
X57.201Y-128.099
X57.627Y-71.51
X57.627Y-76.59
X62.281Y-128.099
X67.361Y-128.099
X75.235Y-128.118
X80.315Y-128.118
X85.395Y-128.118
X93.269Y-128.099
X98.349Y-128.099
X106.172Y-128.099
X111.252Y-128.099
T9
X134.722Y-76.2
T4
G00X48.325Y-83.936
M15
G01X47.525Y-83.936
M16
G05
G00X48.325Y-92.586
M15
G01X47.525Y-92.586
M16
G05
G00X52.055Y-83.936
M15
G01X50.555Y-83.936
M16
G05
G00X52.055Y-92.586
M15
G01X50.555Y-92.586
M16
G05
M30
