%TF.GenerationSoftware,KiCad,Pcbnew,8.0.1*%
%TF.CreationDate,2024-11-10T18:35:03+01:00*%
%TF.ProjectId,Weather,57656174-6865-4722-9e6b-696361645f70,1.0*%
%TF.SameCoordinates,Original*%
%TF.FileFunction,Soldermask,Bot*%
%TF.FilePolarity,Negative*%
%FSLAX46Y46*%
G04 Gerber Fmt 4.6, Leading zero omitted, Abs format (unit mm)*
G04 Created by KiCad (PCBNEW 8.0.1) date 2024-11-10 18:35:03*
%MOMM*%
%LPD*%
G01*
G04 APERTURE LIST*
G04 Aperture macros list*
%AMRoundRect*
0 Rectangle with rounded corners*
0 $1 Rounding radius*
0 $2 $3 $4 $5 $6 $7 $8 $9 X,Y pos of 4 corners*
0 Add a 4 corners polygon primitive as box body*
4,1,4,$2,$3,$4,$5,$6,$7,$8,$9,$2,$3,0*
0 Add four circle primitives for the rounded corners*
1,1,$1+$1,$2,$3*
1,1,$1+$1,$4,$5*
1,1,$1+$1,$6,$7*
1,1,$1+$1,$8,$9*
0 Add four rect primitives between the rounded corners*
20,1,$1+$1,$2,$3,$4,$5,0*
20,1,$1+$1,$4,$5,$6,$7,0*
20,1,$1+$1,$6,$7,$8,$9,0*
20,1,$1+$1,$8,$9,$2,$3,0*%
G04 Aperture macros list end*
%ADD10C,1.100000*%
%ADD11R,2.200000X2.200000*%
%ADD12C,2.200000*%
%ADD13R,1.700000X1.700000*%
%ADD14RoundRect,0.249999X-0.790001X-1.550001X0.790001X-1.550001X0.790001X1.550001X-0.790001X1.550001X0*%
%ADD15O,2.080000X3.600000*%
%ADD16C,3.200000*%
%ADD17C,1.600000*%
%ADD18C,3.800000*%
%ADD19RoundRect,0.249999X-1.550001X0.790001X-1.550001X-0.790001X1.550001X-0.790001X1.550001X0.790001X0*%
%ADD20O,3.600000X2.080000*%
%ADD21R,5.080000X2.420000*%
%ADD22C,0.700000*%
%ADD23O,2.400000X0.900000*%
%ADD24O,1.700000X0.900000*%
%ADD25RoundRect,0.200000X-0.200000X-0.275000X0.200000X-0.275000X0.200000X0.275000X-0.200000X0.275000X0*%
%ADD26RoundRect,0.200000X0.200000X0.275000X-0.200000X0.275000X-0.200000X-0.275000X0.200000X-0.275000X0*%
%ADD27RoundRect,0.250000X-0.650000X1.000000X-0.650000X-1.000000X0.650000X-1.000000X0.650000X1.000000X0*%
%ADD28RoundRect,0.225000X0.225000X0.250000X-0.225000X0.250000X-0.225000X-0.250000X0.225000X-0.250000X0*%
%ADD29RoundRect,0.225000X-0.250000X0.225000X-0.250000X-0.225000X0.250000X-0.225000X0.250000X0.225000X0*%
%ADD30RoundRect,0.375000X0.375000X-0.625000X0.375000X0.625000X-0.375000X0.625000X-0.375000X-0.625000X0*%
%ADD31RoundRect,0.500000X1.400000X-0.500000X1.400000X0.500000X-1.400000X0.500000X-1.400000X-0.500000X0*%
G04 APERTURE END LIST*
D10*
%TO.C,J30*%
X47210000Y-120085000D03*
X47210000Y-122625000D03*
D11*
X49750000Y-120085000D03*
D12*
X49750000Y-122625000D03*
%TD*%
D13*
%TO.C,J37*%
X66395600Y-89001600D03*
%TD*%
D14*
%TO.C,J32*%
X93268800Y-128099300D03*
D15*
X98348800Y-128099300D03*
%TD*%
D13*
%TO.C,J41*%
X117348000Y-87044000D03*
%TD*%
D14*
%TO.C,J35*%
X75234800Y-128117600D03*
D15*
X80314800Y-128117600D03*
X85394800Y-128117600D03*
%TD*%
D13*
%TO.C,J31*%
X69138800Y-86258400D03*
%TD*%
D16*
%TO.C,H2*%
X45720000Y-64770000D03*
%TD*%
D17*
%TO.C,C13*%
X94247000Y-83986400D03*
X94247000Y-78986400D03*
%TD*%
D13*
%TO.C,J38*%
X71831200Y-86258400D03*
%TD*%
D18*
%TO.C,AE1*%
X134721600Y-76200000D03*
%TD*%
D17*
%TO.C,C14*%
X83680600Y-84026400D03*
X83680600Y-79026400D03*
%TD*%
D13*
%TO.C,J42*%
X117348000Y-91694000D03*
%TD*%
D16*
%TO.C,H4*%
X117906800Y-136652000D03*
%TD*%
D14*
%TO.C,J33*%
X52120800Y-128099300D03*
D15*
X57200800Y-128099300D03*
X62280800Y-128099300D03*
X67360800Y-128099300D03*
%TD*%
D19*
%TO.C,J26*%
X57627500Y-71510000D03*
D20*
X57627500Y-76590000D03*
%TD*%
D10*
%TO.C,J25*%
X47210000Y-113481000D03*
X47210000Y-116021000D03*
D11*
X49750000Y-113481000D03*
D12*
X49750000Y-116021000D03*
%TD*%
D21*
%TO.C,J27*%
X143148400Y-118680000D03*
X143148400Y-109920000D03*
%TD*%
D14*
%TO.C,J24*%
X106172000Y-128099300D03*
D15*
X111252000Y-128099300D03*
%TD*%
D17*
%TO.C,C15*%
X83629800Y-73144400D03*
X83629800Y-68144400D03*
%TD*%
D22*
%TO.C,J29*%
X52285000Y-85285600D03*
X52285000Y-86135600D03*
X52285000Y-86985600D03*
X52285000Y-87835600D03*
X52285000Y-88685600D03*
X52285000Y-89535600D03*
X52285000Y-90385600D03*
X52285000Y-91235600D03*
X50935000Y-91235600D03*
X50935000Y-90385600D03*
X50935000Y-89535600D03*
X50935000Y-88685600D03*
X50935000Y-87835600D03*
X50935000Y-86985600D03*
X50935000Y-86135600D03*
X50935000Y-85285600D03*
D23*
X51305000Y-83935600D03*
D24*
X47925000Y-83935600D03*
D23*
X51305000Y-92585600D03*
D24*
X47925000Y-92585600D03*
%TD*%
D16*
%TO.C,H3*%
X45720000Y-136652000D03*
%TD*%
%TO.C,H1*%
X117906800Y-64770000D03*
%TD*%
D17*
%TO.C,C16*%
X94196200Y-73064400D03*
X94196200Y-68064400D03*
%TD*%
D13*
%TO.C,J36*%
X66344800Y-86258400D03*
%TD*%
D25*
%TO.C,R39*%
X65354200Y-65887600D03*
X67004200Y-65887600D03*
%TD*%
%TO.C,R38*%
X61417200Y-65811400D03*
X63067200Y-65811400D03*
%TD*%
D26*
%TO.C,R30*%
X62305200Y-82143600D03*
X60655200Y-82143600D03*
%TD*%
D27*
%TO.C,D1*%
X62636400Y-74301600D03*
X62636400Y-78301600D03*
%TD*%
D28*
%TO.C,C29*%
X52387800Y-82397600D03*
X50837800Y-82397600D03*
%TD*%
D29*
%TO.C,C28*%
X60820600Y-83660000D03*
X60820600Y-85210000D03*
%TD*%
D30*
%TO.C,U12*%
X52846000Y-79985000D03*
X50546000Y-79985000D03*
D31*
X50546000Y-73685000D03*
D30*
X48246000Y-79985000D03*
%TD*%
M02*
